<?xml version="1.0" encoding="UTF-8"?>
<svg id="Layer_2" data-name="Layer 2" xmlns="http://www.w3.org/2000/svg" xmlns:xlink="http://www.w3.org/1999/xlink" viewBox="0 0 413.13 143.06">
  <defs>
    <style>
      .cls-1 {
        fill: url(#linear-gradient-2);
      }

      .cls-2 {
        mask: url(#mask-1);
      }

      .cls-3 {
        fill: #e40317;
      }

      .cls-4 {
        mask: url(#mask);
      }

      .cls-5 {
        fill: none;
      }

      .cls-6 {
        fill: url(#linear-gradient-4);
      }

      .cls-7 {
        fill: #009ee3;
      }

      .cls-8 {
        mask: url(#mask-2);
      }

      .cls-9 {
        fill: url(#linear-gradient-3);
      }

      .cls-10 {
        clip-path: url(#clippath-1);
      }

      .cls-11 {
        fill: url(#linear-gradient-5);
      }

      .cls-12 {
        fill: url(#linear-gradient-8);
      }

      .cls-13 {
        fill: #ffdf00;
      }

      .cls-14 {
        clip-path: url(#clippath-3);
      }

      .cls-15 {
        fill: #a04192;
      }

      .cls-16 {
        fill: url(#linear-gradient-7);
      }

      .cls-17 {
        fill: url(#linear-gradient-6);
      }

      .cls-18 {
        clip-path: url(#clippath-2);
      }

      .cls-19 {
        fill: url(#linear-gradient);
      }

      .cls-20 {
        clip-path: url(#clippath);
      }

      .cls-21 {
        mask: url(#mask-3);
      }
    </style>
    <clipPath id="clippath">
      <polygon class="cls-5" points="413.08 140.55 332.04 140.55 332.04 140.47 332.04 140.39 332.04 140.31 332.04 140.23 332.04 140.12 332.04 140.05 332.04 139.96 332.04 139.88 332.04 139.78 332.04 139.7 332.04 139.62 332.04 139.54 332.04 139.46 332.04 139.35 332.04 139.27 332.04 139.19 332.04 139.11 332.04 139 332.04 138.92 332.04 138.84 332.04 138.76 332.04 138.68 332.04 138.58 332.04 138.5 332.04 138.42 332.04 138.33 332.04 138.23 332.04 138.15 332.04 138.07 332.04 137.99 332.04 137.91 332.04 137.8 332.04 137.72 332.04 137.64 332.04 137.56 332.04 137.45 332.04 137.37 332.04 137.29 332.04 137.21 332.04 137.13 332.04 137.03 332.04 136.95 332.04 136.87 332.04 136.79 332.04 136.68 332.04 136.6 332.04 136.52 332.04 136.44 332.04 136.36 332.04 136.25 332.04 136.17 332.04 136.09 332.04 136.01 332.04 135.9 332.04 135.82 332.04 135.75 332.04 135.66 332.04 135.58 332.04 135.48 332.04 135.4 332.04 135.32 332.04 135.24 332.04 135.13 332.04 135.05 332.04 134.97 332.04 134.89 332.04 134.81 332.04 134.7 332.04 134.62 332.04 134.54 332.04 134.46 332.04 134.36 332.04 134.27 332.04 134.2 332.04 134.12 332.04 134.03 332.04 133.93 332.04 133.85 332.04 133.77 332.04 133.69 332.04 133.58 332.04 133.5 332.04 133.42 332.04 133.34 332.04 133.26 332.04 133.15 332.04 133.07 332.04 132.99 332.04 132.91 332.04 132.81 332.04 132.72 332.04 132.65 332.04 132.57 332.04 132.48 332.04 132.38 332.04 132.3 332.04 132.22 332.04 132.14 332.04 132.03 332.04 131.95 332.04 131.87 332.04 131.79 332.04 131.71 332.04 131.6 332.04 131.52 332.04 131.44 332.04 131.36 332.04 131.26 332.04 131.18 332.04 131.1 332.04 131.02 332.04 130.94 332.04 130.83 332.04 130.75 332.04 130.67 332.04 130.59 332.04 130.48 332.04 130.4 332.04 130.32 332.04 130.24 332.04 130.16 332.04 130.05 332.04 129.97 332.04 129.9 332.04 129.81 332.04 129.71 332.04 129.63 332.04 129.55 332.04 129.47 332.04 129.39 332.04 129.28 332.04 129.2 332.04 129.12 332.04 129.04 332.04 128.93 332.04 128.85 332.04 128.77 332.04 128.69 332.04 128.61 332.04 128.51 332.04 128.43 332.04 128.35 332.04 128.26 332.04 128.16 332.04 128.08 332.04 128 332.04 127.92 332.04 127.84 332.04 127.73 332.04 127.65 332.04 127.57 332.04 15.6 332.04 15.52 332.04 15.41 332.04 15.33 332.04 15.25 332.04 15.17 332.04 15.07 332.04 14.99 332.04 14.9 332.04 14.83 332.04 14.74 332.04 14.64 332.04 14.56 332.04 14.48 332.04 14.4 332.04 14.29 332.04 14.21 332.04 14.13 332.04 14.05 332.04 13.97 332.04 13.86 332.04 13.78 332.04 13.7 332.04 13.62 332.04 13.52 332.04 13.44 332.04 13.35 332.04 13.28 332.04 13.2 332.04 13.09 332.04 13.01 332.04 12.93 332.04 12.85 332.04 12.74 332.04 12.66 332.04 12.58 332.04 12.5 332.04 12.42 332.04 12.31 332.04 12.23 332.04 12.15 332.04 12.07 332.04 11.97 332.04 11.89 332.04 11.81 332.04 11.73 332.04 11.65 332.04 11.54 332.04 11.46 332.04 11.38 332.04 11.3 332.04 11.19 332.04 11.11 332.04 11.03 332.04 10.95 332.04 10.87 332.04 10.77 332.04 10.68 332.04 10.6 332.04 10.53 332.04 10.42 332.04 10.34 332.04 10.26 332.04 10.18 332.04 10.1 332.04 9.99 332.04 9.91 332.04 9.83 332.04 9.75 332.04 9.64 332.04 9.56 332.04 9.48 332.04 9.4 332.04 9.32 332.04 9.22 332.04 9.14 332.04 9.05 332.04 8.98 332.04 8.87 332.04 8.79 332.04 8.71 332.04 8.63 332.04 8.55 332.04 8.44 332.04 8.36 332.04 8.28 332.04 8.2 332.04 8.09 332.04 8.01 332.04 7.93 332.04 7.85 332.04 7.77 332.04 7.67 332.04 7.59 332.04 7.5 332.04 7.43 332.04 7.32 332.04 7.24 332.04 7.16 332.04 7.08 332.04 7 332.04 6.89 332.04 6.81 332.04 6.73 332.04 6.65 332.04 6.54 332.04 6.46 332.04 6.38 332.04 6.3 332.04 6.22 332.04 6.12 332.04 6.04 332.04 5.96 332.04 5.88 332.04 5.77 332.04 5.69 332.04 5.61 332.04 5.53 332.04 5.45 332.04 5.34 332.04 5.26 332.04 5.18 332.04 5.1 332.04 5 332.04 4.92 332.04 4.83 332.04 4.75 332.04 4.68 332.04 4.57 332.04 4.49 332.04 4.41 332.04 4.33 332.04 4.22 332.04 4.14 332.04 4.06 332.04 3.98 332.04 3.9 332.04 3.79 332.04 3.71 332.04 3.63 332.04 3.55 332.04 3.45 332.04 3.37 332.04 3.29 332.04 3.21 332.04 3.13 332.04 3.02 332.04 2.94 332.04 2.86 332.04 2.78 332.04 2.67 332.04 2.59 410.97 2.51 411 24.97 410.97 37.96 355.6 38.09 355.6 53.66 408.86 53.66 408.86 89.13 355.6 89.13 355.6 105.08 413.08 105.08 413.08 105.16 413.08 105.24 413.08 105.32 413.08 105.43 413.08 105.51 413.08 105.59 413.08 105.67 413.08 105.77 413.08 105.86 413.08 105.94 413.08 106.01 413.08 106.1 413.08 106.2 413.08 106.28 413.08 106.36 413.08 106.44 413.08 106.55 413.08 106.63 413.08 106.71 413.08 106.79 413.08 106.87 413.08 106.98 413.08 107.06 413.08 107.14 413.08 107.22 413.08 107.32 413.08 107.4 413.08 107.49 413.08 107.56 413.08 107.64 413.08 107.75 413.08 107.83 413.08 107.91 413.08 107.99 413.08 108.1 413.08 108.18 413.08 108.26 413.08 108.34 413.08 108.42 413.08 108.53 413.08 108.61 413.08 108.69 413.08 108.77 413.08 108.87 413.08 108.95 413.08 109.03 413.08 109.11 413.08 109.19 413.08 109.3 413.08 109.38 413.08 109.46 413.08 109.54 413.08 109.65 413.08 109.73 413.08 109.81 413.08 109.89 413.08 109.97 413.08 110.07 413.08 110.16 413.08 110.24 413.08 110.32 413.08 110.42 413.08 110.5 413.08 110.58 413.08 110.66 413.08 110.74 413.08 110.85 413.08 110.93 413.08 111.01 413.08 111.09 413.08 111.2 413.08 111.28 413.08 111.36 413.08 111.44 413.08 111.52 413.08 111.62 413.08 111.71 413.08 111.79 413.08 111.86 413.08 111.97 413.08 112.05 413.08 112.13 413.08 112.21 413.08 112.29 413.08 112.4 413.08 112.48 413.08 112.56 413.08 112.64 413.08 112.75 413.08 112.83 413.08 112.91 413.08 112.99 413.08 113.07 413.08 113.17 413.08 113.25 413.08 113.33 413.08 113.41 413.08 113.52 413.08 113.6 413.08 113.68 413.08 113.76 413.08 113.84 413.08 113.95 413.08 114.03 413.08 114.11 413.08 114.19 413.08 114.3 413.08 114.38 413.08 114.46 413.08 114.54 413.08 114.62 413.08 114.72 413.08 114.8 413.08 114.88 413.08 114.96 413.08 115.07 413.08 115.15 413.08 115.23 413.08 115.31 413.08 115.39 413.08 115.5 413.08 115.58 413.08 115.66 413.08 115.74 413.08 115.84 413.08 115.92 413.08 116.01 413.08 116.08 413.08 116.17 413.08 116.27 413.08 116.35 413.08 116.43 413.08 116.51 413.08 116.62 413.08 116.7 413.08 116.78 413.08 116.86 413.08 116.94 413.08 117.05 413.08 117.13 413.08 117.21 413.08 117.29 413.08 117.39 413.08 117.47 413.08 117.56 413.08 117.63 413.08 117.71 413.08 117.82 413.08 117.9 413.08 117.98 413.08 118.06 413.13 127.47 413.08 140.55"/>
    </clipPath>
    <linearGradient id="linear-gradient" x1="-402.87" y1="435.07" x2="-400.32" y2="435.07" gradientTransform="translate(23894 -21639.98) rotate(-90) scale(54.06 -54.06)" gradientUnits="userSpaceOnUse">
      <stop offset="0" stop-color="#fff"/>
      <stop offset="1" stop-color="#fff"/>
    </linearGradient>
    <mask id="mask" x="332.04" y="2.51" width="81.09" height="138.04" maskUnits="userSpaceOnUse">
      <rect class="cls-19" x="332.04" y="2.51" width="81.09" height="138.04"/>
    </mask>
    <linearGradient id="linear-gradient-2" x1="-402.87" y1="435.07" x2="-400.32" y2="435.07" gradientTransform="translate(23894 -21639.98) rotate(-90) scale(54.06 -54.06)" gradientUnits="userSpaceOnUse">
      <stop offset="0" stop-color="#fff"/>
      <stop offset="1" stop-color="#000"/>
    </linearGradient>
    <clipPath id="clippath-1">
      <path class="cls-5" d="M283.4,99.26c-3.28,3.87-9,5.8-17.23,5.8l-10.15.03V38.09h10.15c8.2,0,13.94,1.84,17.23,5.53,3.29,3.69,5,9.11,5,16.24l-.03,21.29c0,8.2-1.68,14.26-4.97,18.11M220.9,38.09h11.78v66.81h-11.86v35.69h45.35c15.47,0,26.95-3.61,34.46-10.79,7.5-7.21,11.24-18.35,11.24-33.47v-49.41c0-15.12-3.74-26.28-11.24-33.47-7.51-7.21-18.99-10.79-34.46-10.79h-45.19l-.08,35.44Z"/>
    </clipPath>
    <linearGradient id="linear-gradient-3" x1="-402.87" y1="436.26" x2="-400.32" y2="436.26" gradientTransform="translate(23833.63 -21622.97) rotate(-90) scale(54.02 -54.02)" xlink:href="#linear-gradient"/>
    <mask id="mask-1" x="220.82" y="2.65" width="91.06" height="137.93" maskUnits="userSpaceOnUse">
      <rect class="cls-9" x="220.82" y="2.65" width="91.06" height="137.93"/>
    </mask>
    <linearGradient id="linear-gradient-4" x1="-402.87" y1="436.26" x2="-400.32" y2="436.26" gradientTransform="translate(23833.63 -21622.97) rotate(-90) scale(54.02 -54.02)" xlink:href="#linear-gradient-2"/>
    <clipPath id="clippath-2">
      <path class="cls-5" d="M177.52,91.88c-.72,3.45-1.95,6.44-3.74,8.92-1.79,2.51-4.11,4.44-6.97,5.8-2.86,1.36-6.44,2.06-10.71,2.06-4.33-.03-7.91-.69-10.76-2.06-2.86-1.36-5.18-3.31-6.97-5.8-1.79-2.51-3.04-5.47-3.74-8.92-.72-3.44-1.07-7.26-1.07-11.43v-17.74c0-3.93.43-7.61,1.26-11.06.83-3.45,2.14-6.44,3.93-8.92,1.79-2.51,4.11-4.49,6.97-5.98,2.86-1.49,6.3-2.24,10.36-2.24s7.5.75,10.36,2.24c2.86,1.5,5.18,3.47,6.97,5.98,1.79,2.51,3.1,5.47,3.93,8.92.83,3.44,1.26,7.13,1.26,11.06v17.74c0,4.17-.35,7.99-1.07,11.43M156.07,1.55c-14.4,0-24.92,3.55-33.1,12.47-8.15,8.92-12.55,23.88-12.55,37.1v4.99l-.4,27.88v7.99c0,16.67,4.09,29.33,12.23,38.04,8.15,8.68,19.42,13.03,33.84,13.03s25.67-4.35,33.84-13.03c8.15-8.68,12.23-21.37,12.23-38.04v-12.98l-1.6-14.88v-12.98c0-16.19-4.09-28.74-12.23-37.66-8.23-8.92-17.87-11.94-32.27-11.94"/>
    </clipPath>
    <linearGradient id="linear-gradient-5" x1="-402.94" y1="437.72" x2="-400.38" y2="437.72" gradientTransform="translate(24416.19 -22188.93) rotate(-90) scale(55.42 -55.42)" xlink:href="#linear-gradient"/>
    <mask id="mask-2" x="110.02" y="1.55" width="92.15" height="141.51" maskUnits="userSpaceOnUse">
      <rect class="cls-11" x="110.02" y="1.55" width="92.15" height="141.51"/>
    </mask>
    <linearGradient id="linear-gradient-6" x1="-402.94" y1="437.72" x2="-400.38" y2="437.72" gradientTransform="translate(24416.18 -22188.93) rotate(-90) scale(55.42 -55.42)" xlink:href="#linear-gradient-2"/>
    <clipPath id="clippath-3">
      <path class="cls-5" d="M.08,91.97C0,108.63,4.17,121.29,12.5,130c8.33,8.68,19.63,13.04,33.92,13.04s26.2-4.01,34-12.05c7.8-8.04,11.7-19.5,11.7-34.38v-16.19l-23.51-.1.03,3.07v.53c0,1.58-.08,3.15-.21,4.68-.14,1.49-.27,2.99-.56,4.46-.59,3.04-1.47,5.88-3.1,8.2-1.6,2.32-4.27,4.11-7.19,5.48-2.91,1.36-6.73,2.11-11.27,2.11-4.2,0-7.61-.91-10.52-2.27-2.91-1.36-5.26-3.31-7.05-5.8-1.79-2.51-3.47-5.23-4.3-8.63-.83-3.39-1.1-7.21-1.1-11.27l.21-18.54c0-3.68.45-7.24,1.34-10.63.88-3.39,2.3-6.36,4.19-8.92,1.9-2.57,4.27-4.6,7.13-6.06,2.86-1.5,6.25-2.24,10.18-2.24,4.27,0,7.85.75,10.71,2.24,2.86,1.5,5.13,3.42,6.78,5.8,1.66,2.38,2.86,5.05,3.58,8.04.72,2.96,1.07,5.96,1.07,8.92v3.2h23.56v-16.16c0-7.13-.99-13.57-2.94-19.29-1.95-5.71-4.89-10.6-8.73-14.64-3.87-4.03-8.66-7.13-14.37-9.3C60.34,1.18,53.8.11,46.42.11s-13.57,1.15-19.29,3.47c-5.72,2.32-10.6,5.66-14.64,9.99-4.06,4.35-7.13,9.7-9.3,16.05C1.07,35.98,0,43.16.08,51.13v40.84Z"/>
    </clipPath>
    <linearGradient id="linear-gradient-7" x1="-402.95" y1="439.01" x2="-400.4" y2="439.01" gradientTransform="translate(24620.62 -22413.2) rotate(-90) scale(55.98 -55.98)" xlink:href="#linear-gradient"/>
    <mask id="mask-3" x="0" y=".11" width="92.13" height="142.93" maskUnits="userSpaceOnUse">
      <rect class="cls-16" y=".11" width="92.13" height="142.93"/>
    </mask>
    <linearGradient id="linear-gradient-8" x1="-402.95" y1="439.01" x2="-400.4" y2="439.01" gradientTransform="translate(24620.62 -22413.2) rotate(-90) scale(55.98 -55.98)" xlink:href="#linear-gradient-2"/>
  </defs>
  <g id="Code">
    <g>
      <g class="cls-20">
        <g class="cls-4">
          <rect class="cls-1" x="332.04" y="2.51" width="81.09" height="138.04"/>
        </g>
      </g>
      <g class="cls-10">
        <g class="cls-2">
          <rect class="cls-6" x="220.82" y="2.65" width="91.06" height="137.93"/>
        </g>
      </g>
      <g class="cls-18">
        <g class="cls-8">
          <rect class="cls-17" x="110.02" y="1.55" width="92.15" height="141.51"/>
        </g>
      </g>
      <g class="cls-14">
        <g class="cls-21">
          <rect class="cls-12" y=".11" width="92.13" height="142.93"/>
        </g>
      </g>
      <polygon class="cls-15" points="355.65 104.97 355.65 76.05 408.86 76.05 408.86 53.55 355.65 53.55 355.65 24.98 411 24.98 411 2.48 332.09 2.48 332.09 127.46 413.13 127.46 413.13 104.97 355.65 104.97"/>
      <path class="cls-13" d="M288.37,81.04c0,8.2-1.63,14.26-4.92,18.11-3.29,3.87-9,5.8-17.23,5.8l-9.99.03V25h9.99c8.2,0,13.94,1.84,17.23,5.53,3.29,3.69,4.92,9.11,4.92,16.24v34.27ZM300.71,13.33c-7.51-7.21-18.99-10.79-34.46-10.79h-45.35v22.44h11.78v79.81h-11.78v22.68h45.35c15.47,0,26.95-3.61,34.46-10.79,7.51-7.21,11.24-18.35,11.24-33.47v-36.41c0-15.12-3.74-26.28-11.24-33.47"/>
      <path class="cls-7" d="M178.64,80.35c0,4.17-.35,7.99-1.07,11.43-.72,3.44-1.95,6.44-3.74,8.92-1.79,2.51-4.11,4.43-6.97,5.8-2.86,1.36-6.44,2.06-10.71,2.06-4.33-.03-7.91-.69-10.76-2.06-2.86-1.36-5.18-3.31-6.97-5.8-1.79-2.51-3.05-5.48-3.74-8.92-.72-3.45-1.07-7.27-1.07-11.43v-30.72c0-3.93.43-7.61,1.26-11.06.83-3.45,2.13-6.44,3.92-8.92,1.79-2.51,4.11-4.49,6.97-5.98,2.86-1.5,6.3-2.24,10.36-2.24s7.5.75,10.36,2.24c2.86,1.49,5.18,3.47,6.97,5.98,1.79,2.51,3.1,5.47,3.93,8.92.83,3.44,1.25,7.13,1.25,11.06v30.72ZM189.97,13.38C181.79,4.46,170.5,0,156.1,0s-25.67,4.46-33.84,13.38c-8.15,8.92-12.23,21.48-12.23,37.66l.03,27.86c0,16.67,4.09,29.33,12.23,38.04,8.15,8.68,19.42,13.03,33.84,13.03s25.67-4.35,33.84-13.03c8.15-8.68,12.23-21.37,12.23-38.04v-27.86c0-16.19-4.09-28.74-12.23-37.66"/>
      <path class="cls-3" d="M68.62,80.32v3.2c0,3.21-.29,6.33-.88,9.38-.59,3.05-1.68,5.72-3.31,8.04-1.6,2.32-3.87,4.17-6.79,5.53-2.91,1.36-6.62,2.06-11.16,2.06-4.2,0-7.72-.67-10.63-2.03-2.91-1.36-5.26-3.31-7.05-5.8-1.79-2.51-3.1-5.45-3.92-8.84-.83-3.39-1.26-7.1-1.26-11.17v-31.41c0-3.69.45-7.24,1.34-10.63.88-3.39,2.3-6.36,4.19-8.92,1.9-2.56,4.27-4.59,7.13-6.06,2.86-1.5,6.25-2.24,10.18-2.24,4.27,0,7.85.75,10.71,2.24,2.86,1.5,5.13,3.42,6.78,5.8,1.66,2.38,2.86,5.05,3.58,8.04.72,2.96,1.07,5.96,1.07,8.92v3.2h23.56v-3.2c0-7.13-.99-13.57-2.94-19.29-1.95-5.72-4.89-10.6-8.73-14.64-3.87-4.03-8.66-7.13-14.37-9.29-5.72-2.14-12.26-3.21-19.63-3.21s-13.57,1.15-19.29,3.47c-5.72,2.32-10.6,5.66-14.64,9.99-4.06,4.35-7.13,9.69-9.3,16.05C1.12,35.87.05,43.06.05,51.02v27.86c0,16.67,4.17,29.33,12.5,38.04,8.33,8.68,19.63,13.03,33.92,13.03s26.2-4.01,34-12.05c7.8-8.04,11.7-19.5,11.7-34.38v-3.2h-23.56Z"/>
    </g>
  </g>
</svg>